<?xml version="1.0" encoding="utf-8"?>
<!-- Generator: Adobe Illustrator 16.0.0, SVG Export Plug-In . SVG Version: 6.00 Build 0)  -->
<!DOCTYPE svg PUBLIC "-//W3C//DTD SVG 1.1//EN" "http://www.w3.org/Graphics/SVG/1.1/DTD/svg11.dtd">
<svg version="1.1" id="Layer_1" xmlns="http://www.w3.org/2000/svg" xmlns:xlink="http://www.w3.org/1999/xlink" x="0px" y="0px"
	 width="99.75px" height="50px" viewBox="0 0 99.75 50" enable-background="new 0 0 99.75 50" xml:space="preserve">
<g>
	<path fill-rule="evenodd" clip-rule="evenodd" fill="#FFFFFF" d="M45,22.886c-0.224,0.502-0.643,0.808-1.057,1.145
		c-0.571,0.465-1.132,0.968-1.599,1.535c-1.261,1.532-2.802,2.581-4.761,2.971c-0.354,0.071-0.721,0.118-1.082,0.116
		c-0.337-0.001-0.584,0.113-0.756,0.385c-0.229,0.362-0.493,0.713-0.65,1.106c-0.749,1.867-1.914,3.478-3.053,5.109
		c-0.393,0.563-0.707,1.179-1.078,1.757c-0.073,0.115-0.243,0.241-0.368,0.241c-4.218,0.011-8.436,0.009-12.653,0.007
		c-0.025,0-0.051-0.01-0.076-0.015c-0.016-0.018-0.045-0.034-0.047-0.053c-0.138-1.381-1.044-2.442-1.536-3.675
		c-0.442-1.105-0.766-2.232-0.816-3.43c-0.033-0.772-0.663-1.365-1.596-1.493c-0.384-0.053-0.777-0.059-1.166-0.058
		c-0.762,0.002-1.48-0.201-2.117-0.58c-0.835-0.497-1.637-1.055-2.415-1.637c-0.78-0.584-1.502-1.245-2.272-1.843
		C5.505,24.169,5.138,23.86,5,23.355c0-0.364,0-0.729,0-1.094c0.07-0.273,0.115-0.556,0.218-0.817
		c0.256-0.649,0.478-1.323,0.821-1.924c0.76-1.33,1.598-2.614,2.379-3.931c0.258-0.433,0.463-0.901,0.652-1.371
		c0.41-1.016,1.213-1.464,2.238-1.427c0.675,0.025,1.352,0.224,2.009,0.409c0.448,0.126,0.687,0.458,0.668,0.972
		c-0.025,0.687,0.028,1.376,0,2.063c-0.011,0.276-0.023,0.673-0.415,0.695c-0.356,0.02-0.526-0.31-0.621-0.607
		c-0.079-0.244-0.211-0.295-0.444-0.332c-0.456-0.07-0.902-0.201-1.393-0.316c-0.174,0.492-0.363,1.05-0.57,1.603
		c-0.113,0.303-0.281,0.587-0.374,0.896c-0.068,0.227-0.08,0.479-0.07,0.717c0.032,0.793,0.097,1.584,0.126,2.376
		c0.013,0.347-0.029,0.695-0.047,1.047c0.434-0.098,0.863-0.219,1.302-0.291c1.305-0.215,2.352,0.261,3.15,1.279
		c0.188,0.24,0.349,0.269,0.613,0.205c1.01-0.243,2.026-0.334,3.047-0.068c0.553,0.144,1.031,0.414,1.421,0.843
		c0.501,0.553,1.146,0.844,1.876,0.935c0.549,0.068,1.013-0.433,1.084-1.101c0.098-0.929-0.162-1.799-0.418-2.671
		c-0.015-0.051-0.075-0.12-0.122-0.126c-0.404-0.058-0.507-0.374-0.586-0.692c-0.087-0.352-0.155-0.709-0.207-1.068
		c-0.048-0.326-0.009-0.62,0.435-0.599c-0.522-2.543,0.416-4.168,2.562-4.408c1.123-0.125,2.205,0.013,2.993,0.947
		c0.747,0.887,0.795,1.97,0.742,3.057c0.728,0.225,0.854,0.463,0.615,1.203c-0.104,0.32-0.235,0.631-0.371,0.939
		c-0.121,0.274-0.188,0.623-0.646,0.502c0.078,0.73,0.109,1.407,0.231,2.067c0.121,0.657,0.396,1.243,1.138,1.439
		c0.361,0.096,0.682,0.054,0.999-0.161c0.791-0.534,1.638-0.96,2.569-1.185c0.713-0.171,1.418-0.188,2.009,0.259
		c0.458-0.37,0.865-0.758,1.328-1.062c1.059-0.696,2.191-0.83,3.376-0.319c0.514,0.221,1.063,0.112,1.282-0.282
		c0.057-0.102,0.052-0.313-0.019-0.398c-0.757-0.922-1.071-2.014-1.189-3.163c-0.065-0.643,0.001-1.298-0.024-1.946
		c-0.014-0.346-0.059-0.699-0.154-1.03c-0.123-0.422-0.997-0.565-1.195-0.179c-0.372,0.725-0.994,0.848-1.696,0.868
		c-0.063,0.001-0.127,0.016-0.213,0.028c0.044,0.44-0.209,0.559-0.589,0.575c-1.331,0.058-1.993-1.027-1.35-2.302
		c0.183-0.362,0.496-0.77,0.848-0.912c1.006-0.407,2.048-0.768,3.158-0.761c0.966,0.006,1.712,0.433,2.241,1.256
		c0.377,0.587,0.781,1.16,1.197,1.722c1.192,1.614,2.309,3.272,3.013,5.168c0.147,0.398,0.25,0.813,0.374,1.219
		C45,22.366,45,22.626,45,22.886z"/>
</g>
<g>
	<g transform="translate(0.000000,1020.000000) scale(0.100000,-0.100000)">
		<path fill="#FFFFFF" d="M793.081,10069.96c-2.803-0.264-5.605-0.659-7.183-1.035c-5.791-1.367-8.73-2.593-13.369-5.488
			c-3.13-1.978-5.469-3.203-7.49-3.955c-3.174-1.201-6.445-4.097-8.921-7.954c-3.057-4.712-3.413-5.557-3.882-9.253
			c-0.137-1.133-0.4-2.427-0.61-2.896c-0.635-1.533-1.934-6.567-2.495-9.697c-0.469-2.666-0.547-3.77-0.547-9.253
			c0.029-7.017,0.22-8.569,1.675-12.71c1.133-3.271,3.56-8.423,4.404-9.409c1.313-1.514,1.929-3.184,1.929-5.298
			c-0.029-2.471-0.239-3.491-0.986-4.355c-0.732-0.874-1.416-1.177-4.312-1.885c-2.71-0.64-5.791-2.261-12.358-6.47
			c-5.718-3.701-7.295-4.644-9.082-5.557c-3.999-2.002-15.273-6.733-25.518-10.693c-3.223-1.245-7.344-2.847-9.111-3.555
			l-3.223-1.265l-1.553,0.635l-1.533,0.63l-1.836-0.449c-3.037-0.698-16.968-5.479-21.86-7.48
			c-7.202-2.964-11.558-5.933-18.604-12.71c-3.994-3.862-5.952-6.948-7.837-12.29c-0.542-1.553-1.621-4.233-2.378-5.952
			c-2.324-5.229-4.468-11.318-6.357-17.988c-0.562-2.046-1.084-3.716-1.147-3.716c-0.356,0.024-2.476,4.092-3.276,6.235
			c-0.703,1.929-2.573,4.404-4.077,5.391c-3.076,2.051-6.118,1.44-8.467-1.694c-1.128-1.484-3.223-5.317-4.683-8.564
			c-2.588-5.703-3.345-6.992-5.864-9.844c-2.725-3.081-5.103-6.162-5.459-7.036c-0.117-0.356-0.19-2.734-0.146-5.557l0.073-4.941
			l1.279-2.119c1.338-2.241,4.106-6.118,5.239-7.314c0.615-0.669,0.708-0.996,0.898-2.876c0.21-2.427,0.444-2.944,1.484-3.579
			c1.313-0.806,2.373-0.518,4.214,1.128c0.581,0.518,1.011,0.747,1.06,0.596c0.044-0.151,1.03-2.173,2.168-4.478
			c2.607-5.298,4.634-8.052,6.558-8.989c0.547-0.288,2.31-1.372,3.882-2.432c3.584-2.378,4.36-2.695,7.07-3.032
			c5.625-0.713,11.294,0.586,16.216,3.623c2.402,1.509,2.773,1.602,5.835,1.675c2.993,0.068,4.38,0.469,6.24,1.812
			c0.781,0.566,1.133,1.03,1.514,2.07c0.273,0.752,1.079,2.31,1.782,3.457c2.31,3.721,2.896,5.132,3.413,8.218
			c0.586,3.389,1.011,4.121,2.471,4.121c0.825,0,3.579-1.792,10.005-6.494c2.144-1.582,4.897-3.516,6.123-4.341
			c4.922-3.223,12.095-6.26,19.185-8.12c4.297-1.128,8.33-0.747,12.686,1.206c2.52,1.133,3.506,1.27,4.307,0.537
			c0.332-0.303,1.104-1.646,1.738-2.939c0.977-1.982,1.509-2.734,3.11-4.375c2.192-2.246,3.066-2.759,7.437-4.399
			c4.028-1.533,5.649-1.865,10.786-2.148c2.305-0.142,4.473-0.376,4.824-0.513c0.356-0.127,1.113-0.781,1.689-1.465
			c1.133-1.348,3.511-2.729,4.663-2.729c0.4,0,0.913,0.239,1.245,0.591c0.547,0.513,0.591,0.752,0.591,2.681v2.119l1.602,0.469
			c2.358,0.708,4.873,1.201,6.147,1.201c1.152,0,2.041-0.4,4.893-2.09c2.188-1.323,4.819-1.25,5.181,0.156
			c0.068,0.337-0.02,1.348-0.254,2.236c-0.288,1.25-0.342,1.724-0.122,1.958c0.137,0.186,0.356,0.327,0.444,0.327
			c0.098,0,1.04-0.796,2.07-1.738c2.188-2.026,2.993-2.495,4.165-2.495c0.591,0,1.04,0.186,1.582,0.703
			c0.4,0.381,0.918,0.708,1.172,0.708c0.728,0,1.558,0.703,1.836,1.528c0.356,1.06-0.112,2.876-1.387,5.581
			c-1.88,3.979-5.059,5.952-11.558,7.227c-6.704,1.289-13.774,2.139-18.027,2.139h-1.748l-2.632,5.259l-2.612,5.22l-0.898,5.181
			c-1.06,6.143-1.548,10.396-1.245,10.684c0.117,0.122,1.743,0.703,3.623,1.313c8.667,2.876,11.582,4.668,22.954,14.102
			c6.543,5.415,7.905,6.357,14.355,9.678c6.846,3.56,8.027,4.429,15.391,11.372c2.383,2.236,5.42,4.917,6.763,5.952
			c1.343,1.04,2.495,1.978,2.563,2.124c0.098,0.112,0.449,0.21,0.83,0.21c0.84,0,1.123-0.4,3.008-4.121
			c1.929-3.789,2.617-5.625,3.926-10.361c3.628-13.13,5.044-16.475,8.101-19.15c3.867-3.369,3.955-3.486,5.42-6.479
			c2.378-4.873,4.072-7.397,7.197-10.742c0.898-0.981,3.081-3.452,4.829-5.522c1.743-2.07,4.189-4.829,5.459-6.143
			c1.387-1.416,2.31-2.563,2.31-2.852c0-0.259-0.166-0.874-0.356-1.318c-0.566-1.343-0.449-3.013,0.356-5.063
			c1.362-3.579,1.338-4.8-0.093-6.211c-1.04-1.035-1.157-1.455-0.591-2.163c0.752-0.942,2.046-1.177,4.004-0.708
			c2.28,0.562,4.282,2.119,6.206,4.844c0.381,0.542-0.181,0.571,7.07-0.259c2.236-0.254,5.645-0.874,7.764-1.362l3.765-0.898h6.733
			c6.304,0,6.777,0.029,7.246,0.454c0.381,0.332,0.43,0.518,0.239,0.752c-0.327,0.396-0.093,1.411,0.352,1.577
			c0.19,0.073,0.703,0.02,1.152-0.112c1.792-0.552,2.71,0.391,1.929,1.997c-0.508,1.104-2.754,3.296-4.585,4.497
			c-1.865,1.221-3.345,1.807-6.66,2.583c-1.411,0.332-3.081,0.898-3.77,1.255c-1.577,0.869-3.315,3.008-4.966,6.187
			c-1.318,2.568-4.067,9.297-5.151,12.593c-3.887,12.051-5.132,15.439-7.3,19.771c-1.509,3.037-2.471,4.263-6.45,8.125
			c-4.844,4.736-7.134,8.306-13.887,21.772c-4.38,8.706-4.541,9.111-6.289,15.044c-1.572,5.391-2.383,7.275-4.302,10.283
			c-1.528,2.378-2.188,3.936-2.188,5.132c0,0.332,0.308,1.27,0.679,2.075c0.942,1.958,1.597,2.305,4.238,2.256
			c1.88-0.049,1.973-0.024,2.656,0.659c1.084,1.084,0.874,2.207-1.128,5.859c-1.528,2.803-0.142,4.194,5.415,5.396
			c1.27,0.278,2.49,0.61,2.705,0.728c0.898,0.469,2.334,2.373,3.301,4.375c0.913,1.909,1.152,2.192,1.943,2.568
			c1.982,0.874,3.252,2.451,3.252,4.004c0,1.035-0.073,1.177-2.021,3.921c-0.845,1.211-1.699,2.554-1.885,2.998
			c-0.42,1.011-0.42,2.544,0,3.345c0.166,0.347,0.288,0.864,0.215,1.177c-0.142,0.771,0.308,1.27,1.812,2.026
			c1.621,0.82,1.807,1.426,0.61,2.139c-1.011,0.61-1.108,1.436-0.332,2.939c0.381,0.757,0.522,1.465,0.542,2.993
			c0.044,1.602,0.356,3.13,1.484,7.412c1.812,6.904,1.978,7.788,1.978,11.655c0,5.347-0.615,7.012-5.034,13.96
			c-5.562,8.75-6.621,9.98-12.339,14.287c-1.787,1.362-4.116,3.154-5.156,3.95c-2.803,2.236-3.687,2.617-11.763,5.225
			c-1.299,0.425-4.15,1.582-6.362,2.593c-4.561,2.119-4.868,2.188-9.648,3.013c-2.896,0.498-4.404,0.615-8.472,0.635
			C796.255,10070.004,793.599,10070.004,793.081,10069.96z"/>
	</g>
</g>
</svg>
