<?xml version="1.0" encoding="utf-8"?>
<!-- Generator: Adobe Illustrator 16.0.0, SVG Export Plug-In . SVG Version: 6.00 Build 0)  -->
<!DOCTYPE svg PUBLIC "-//W3C//DTD SVG 1.1//EN" "http://www.w3.org/Graphics/SVG/1.1/DTD/svg11.dtd">
<svg version="1.1" id="Layer_1" xmlns="http://www.w3.org/2000/svg" xmlns:xlink="http://www.w3.org/1999/xlink" x="0px" y="0px"
	 width="37.224px" height="37.224px" viewBox="0 0 37.224 37.224" enable-background="new 0 0 37.224 37.224" xml:space="preserve">
<polygon display="none" fill="#00FFFF" points="37.224,3.536 33.688,0 18.612,15.077 3.535,0 0,3.535 15.077,18.612 0,33.688 
	3.535,37.224 18.612,22.147 33.688,37.224 37.223,33.688 22.147,18.612 "/>
<g>
	<path fill="#FF00FF" d="M18.532,37.065C8.313,37.065,0,28.751,0,18.533S8.313,0,18.532,0s18.532,8.314,18.532,18.533
		S28.751,37.065,18.532,37.065z M18.532,5C11.07,5,5,11.071,5,18.533s6.07,13.532,13.532,13.532s13.532-6.07,13.532-13.532
		S25.994,5,18.532,5z"/>
</g>
</svg>
