<?xml version="1.0" encoding="utf-8"?>
<!-- Generator: Adobe Illustrator 16.0.0, SVG Export Plug-In . SVG Version: 6.00 Build 0)  -->
<!DOCTYPE svg PUBLIC "-//W3C//DTD SVG 1.1//EN" "http://www.w3.org/Graphics/SVG/1.1/DTD/svg11.dtd">
<svg version="1.1" xmlns="http://www.w3.org/2000/svg" xmlns:xlink="http://www.w3.org/1999/xlink" x="0px" y="0px"
	 width="112.269px" height="113.829px" viewBox="0 0 112.269 113.829" enable-background="new 0 0 112.269 113.829"
	 xml:space="preserve">
<g id="Layer_3">
	<path fill="#00FFFF" d="M25.848,15.234l30.287,31.042l30.287-30.042l10.639,9.639L65.621,56.916l31.439,31.041L86.422,98.595
		L56.135,67.553L25.848,97.595l-10.641-9.639l32.289-31.041L16.207,25.873L25.848,15.234z"/>
</g>
<g id="Layer_2">
	<path fill="#FF00FF" d="M56.134,0.78C25.182,0.78,0,25.963,0,56.916c0,30.951,25.182,56.133,56.134,56.133
		c30.953,0,56.135-25.182,56.135-56.133C112.269,25.963,87.087,0.78,56.134,0.78z M56.134,104.668
		c-26.33,0-47.752-21.422-47.752-47.752c0-26.332,21.422-47.755,47.752-47.755c26.332,0,47.754,21.423,47.754,47.755
		C103.888,83.246,82.466,104.668,56.134,104.668z"/>
</g>
</svg>
